<?xml version="1.0" encoding="utf-8"?>
<!-- Generator: Adobe Illustrator 27.7.0, SVG Export Plug-In . SVG Version: 6.00 Build 0)  -->
<svg version="1.1" id="Layer_1" xmlns="http://www.w3.org/2000/svg" xmlns:xlink="http://www.w3.org/1999/xlink" x="0px" y="0px"
	 viewBox="0 0 200 200" style="enable-background:new 0 0 200 200;" xml:space="preserve">
<style type="text/css">
	.st0{fill:#F9F9F9;}
	.st1{fill:#191919;}
</style>
<rect x="49.2" y="21.9" class="st0" width="99.5" height="176.8"/>
<g>
	<path class="st1" d="M114.1,198.7c0-23.6,0-46.4,0-70c7.7,0,15.2,0,23.1,0c1.5-10.2,2.9-19.7,4.4-30.1c-9.4,0-18.1,0-27.2,0
		c-1-8.5-1-16.3-0.2-24.1c0.6-5.2,5.2-9,11-9.5c3.8-0.3,7.6-0.1,11.5-0.2c2.2,0,4.4,0,7,0c0-9.7,0-18.9,0-28.1
		c-0.3-0.2-0.6-0.7-0.9-0.7c-9.7-0.1-19.4-0.8-28.9,0C96,37.5,82.1,53,81.6,70.9c-0.2,8.8,0,17.7,0,27.2c-8.3,1.2-16.5,0.2-24.5,0.5
		c-1.6,4.3-2.1,20-0.9,29.9c8.1,0,16.2,0,24.8,0c0,23.4,0,46.2,0,69.5c-1.3,0.2-2.9,0.5-4.4,0.5c-8.7,0.1-17.3,0.1-26,0
		c-26.5-0.2-49.4-22.4-50.2-48.9c-0.3-9.6-0.1-19.3-0.1-28.9c0-22.9,0.2-45.8,0-68.7C0.3,27.6,17.9,6.3,41.4,1.4
		c4.5-0.9,9.2-1.2,13.8-1.2c30.2-0.1,60.4,0,90.6-0.2c24.9-0.1,43.7,16.1,50.1,34.1c1.3,3.7,2.4,7.7,2.7,11.7
		c0.7,8.2,1.1,16.4,1.1,24.7c0.1,20.5,0.1,41,0,61.5c-0.1,7.2-0.3,14.5-1,21.7c-2.5,24.9-24.9,45-50,45.1
		C137.4,198.8,126.2,198.7,114.1,198.7z"/>
</g>
</svg>
