<?xml version="1.0" encoding="utf-8"?>
<!-- Generator: Adobe Illustrator 27.7.0, SVG Export Plug-In . SVG Version: 6.00 Build 0)  -->
<svg version="1.1" id="Layer_1" xmlns="http://www.w3.org/2000/svg" xmlns:xlink="http://www.w3.org/1999/xlink" x="0px" y="0px"
	 viewBox="0 0 200 200" style="enable-background:new 0 0 200 200;" xml:space="preserve">
<style type="text/css">
	.st0{fill:#191919;}
	.st1{fill:#F9F9F9;}
</style>
<path class="st0" d="M50.7,199.3c-11.9-0.5-18.4-2.5-22.7-4.2c-5.7-2.2-9.8-4.9-14-9.1c-4.3-4.3-6.9-8.3-9.1-14
	c-1.7-4.3-3.7-10.8-4.2-22.7C0.1,136.4,0,132.6,0,100s0.1-36.4,0.7-49.3c0.5-11.9,2.5-18.3,4.2-22.7c2.2-5.7,4.9-9.8,9.1-14
	c4.3-4.3,8.3-6.9,14-9.1c4.3-1.7,10.8-3.7,22.7-4.2C63.6,0.1,67.4,0,100,0c32.6,0,36.4,0.1,49.3,0.7c11.9,0.5,18.3,2.5,22.7,4.2
	c5.7,2.2,9.8,4.9,14,9.1c4.3,4.3,6.9,8.3,9.1,14c1.7,4.3,3.7,10.8,4.2,22.7c0.6,12.9,0.7,16.7,0.7,49.3c0,32.6-0.1,36.4-0.7,49.3
	c-0.5,11.9-2.5,18.4-4.2,22.7c-2.2,5.7-4.9,9.8-9.1,14c-4.3,4.3-8.3,6.9-14,9.1c-4.3,1.7-10.8,3.7-22.7,4.2
	c-12.9,0.6-16.7,0.7-49.3,0.7C67.4,200,63.6,199.9,50.7,199.3"/>
<path class="st1" d="M75.4,100.4c0-13.7,11.1-24.8,24.8-24.8S125,86.7,125,100.4s-11.1,24.8-24.8,24.8S75.4,114.1,75.4,100.4
	 M62.1,100.4c0,21.1,17.1,38.2,38.2,38.2s38.2-17.1,38.2-38.2s-17.1-38.2-38.2-38.2S62.1,79.4,62.1,100.4 M131,60.8
	c0,4.9,4,8.9,8.9,8.9c4.9,0,8.9-4,8.9-8.9c0-4.9-4-8.9-8.9-8.9h0C134.9,51.9,131,55.8,131,60.8 M70.2,160.9
	c-7.2-0.3-11.2-1.5-13.8-2.6c-3.5-1.4-5.9-3-8.5-5.6c-2.6-2.6-4.2-5.1-5.6-8.5c-1-2.6-2.2-6.6-2.6-13.8c-0.4-7.8-0.4-10.2-0.4-30
	s0.1-22.2,0.4-30c0.3-7.2,1.5-11.2,2.6-13.8c1.4-3.5,3-5.9,5.6-8.5s5.1-4.2,8.5-5.6c2.6-1,6.6-2.2,13.8-2.6c7.8-0.4,10.2-0.4,30-0.4
	s22.2,0.1,30,0.4c7.2,0.3,11.2,1.5,13.8,2.6c3.5,1.3,5.9,3,8.5,5.6c2.6,2.6,4.2,5.1,5.6,8.5c1,2.6,2.2,6.6,2.6,13.8
	c0.4,7.8,0.4,10.2,0.4,30s-0.1,22.2-0.4,30c-0.3,7.2-1.5,11.2-2.6,13.8c-1.4,3.5-3,5.9-5.6,8.5c-2.6,2.6-5.1,4.2-8.5,5.6
	c-2.6,1-6.6,2.2-13.8,2.6c-7.8,0.4-10.2,0.4-30,0.4S78,161.3,70.2,160.9 M69.6,26.6c-7.9,0.4-13.3,1.6-18,3.5
	c-4.9,1.9-9,4.4-13.2,8.6s-6.7,8.3-8.6,13.2c-1.8,4.7-3.1,10.1-3.5,18c-0.4,7.9-0.4,10.5-0.4,30.6s0.1,22.7,0.4,30.6
	c0.4,7.9,1.6,13.3,3.5,18c1.9,4.9,4.4,9,8.6,13.2c4.1,4.1,8.3,6.7,13.2,8.6c4.7,1.8,10.1,3.1,18,3.5c7.9,0.4,10.5,0.4,30.6,0.4
	s22.7-0.1,30.6-0.4c7.9-0.4,13.3-1.6,18-3.5c4.9-1.9,9-4.4,13.2-8.6c4.1-4.1,6.7-8.3,8.6-13.2c1.8-4.7,3.1-10.1,3.5-18
	c0.4-7.9,0.4-10.5,0.4-30.6s-0.1-22.7-0.4-30.6c-0.4-7.9-1.6-13.3-3.5-18c-1.9-4.9-4.4-9-8.6-13.2c-4.1-4.1-8.3-6.7-13.2-8.6
	c-4.7-1.8-10.1-3.1-18-3.5c-7.9-0.4-10.5-0.4-30.6-0.4S77.5,26.2,69.6,26.6"/>
</svg>
