<?xml version="1.0" encoding="UTF-8"?>
<svg id="Layer_1" data-name="Layer 1" xmlns="http://www.w3.org/2000/svg" viewBox="0 0 299.42 144.37">
  <defs>
    <style>
      .cls-1 {
        fill: #4d2e36;
      }

      .cls-2 {
        fill: #6f6f6f;
      }

      .cls-3 {
        fill: #434d41;
      }

      .cls-4 {
        fill: #525252;
      }

      .cls-5 {
        fill: #646464;
      }

      .cls-6 {
        fill: #5f5f5f;
      }

      .cls-7 {
        fill: #2f2b2a;
      }

      .cls-8 {
        fill: #4f4f4f;
      }

      .cls-9 {
        fill: #181715;
      }

      .cls-10 {
        fill: #ebe9e4;
      }

      .cls-11 {
        fill: #344a32;
      }

      .cls-12 {
        fill: #1a1a19;
      }

      .cls-13 {
        fill: #797979;
      }

      .cls-14 {
        fill: #0e0d0e;
      }

      .cls-15 {
        fill: #838383;
      }

      .cls-16 {
        fill: #7f283b;
      }

      .cls-17 {
        fill: #e9e9e6;
      }

      .cls-18 {
        fill: #d4d4d0;
      }

      .cls-19 {
        fill: #777;
      }

      .cls-20 {
        fill: #a6cfe2;
      }

      .cls-21 {
        fill: #c18189;
      }

      .cls-22 {
        fill: #b8b8b8;
      }

      .cls-23 {
        fill: #4e3035;
      }

      .cls-24 {
        fill: #a2a2a1;
      }

      .cls-25 {
        fill: #141413;
      }

      .cls-26 {
        fill: #4a4a4a;
      }

      .cls-27 {
        fill: #3e3e3e;
      }

      .cls-28 {
        fill: #dc637c;
      }

      .cls-29 {
        fill: #121212;
      }

      .cls-30 {
        fill: #10100f;
      }

      .cls-31 {
        fill: #4d4d4d;
      }

      .cls-32 {
        fill: #0c0c0c;
      }

      .cls-33 {
        fill: #0a0b0a;
      }

      .cls-34 {
        fill: #7bb47b;
      }

      .cls-35 {
        fill: #7e7e7e;
      }

      .cls-36 {
        fill: #8f8f8f;
      }

      .cls-37 {
        fill: #ee89a6;
      }

      .cls-38 {
        fill: #c9c9c9;
      }

      .cls-39 {
        fill: #d59ead;
      }

      .cls-40 {
        fill: #1e1e1e;
      }

      .cls-41 {
        fill: #131313;
      }

      .cls-42 {
        fill: #090909;
      }

      .cls-43 {
        fill: #161512;
      }

      .cls-44 {
        fill: #465548;
      }

      .cls-45 {
        fill: #303030;
      }

      .cls-46 {
        fill: #a5e3aa;
      }

      .cls-47 {
        fill: #8b2d3f;
      }

      .cls-48 {
        fill: #2b3626;
      }

      .cls-49 {
        fill: #eaeae4;
      }

      .cls-50 {
        fill: #eaeae3;
      }

      .cls-51 {
        fill: #d5667d;
      }

      .cls-52 {
        fill: #343c2f;
      }

      .cls-53 {
        fill: #849a84;
      }

      .cls-54 {
        fill: #6c3e49;
      }

      .cls-55 {
        fill: #3b3b3b;
      }

      .cls-56 {
        fill: #583440;
      }

      .cls-57 {
        fill: #636363;
      }

      .cls-58 {
        fill: #c4c4c4;
      }

      .cls-59 {
        fill: #3a3a3a;
      }

      .cls-60 {
        fill: #686868;
      }

      .cls-61 {
        fill: #234022;
      }

      .cls-62 {
        fill: #444;
      }

      .cls-63 {
        fill: #d3d3d3;
      }

      .cls-64 {
        fill: #878787;
      }

      .cls-65 {
        fill: #555;
      }

      .cls-66 {
        fill: #7db57d;
      }

      .cls-67 {
        fill: #0f0e0e;
      }

      .cls-68 {
        fill: #394138;
      }

      .cls-69 {
        fill: #868686;
      }

      .cls-70 {
        fill: #0d0d0d;
      }

      .cls-71 {
        fill: #171516;
      }

      .cls-72 {
        fill: #7eb181;
      }

      .cls-73 {
        fill: #474747;
      }

      .cls-74 {
        fill: #212f1e;
      }

      .cls-75 {
        fill: #595959;
      }

      .cls-76 {
        fill: #30622e;
      }

      .cls-77 {
        fill: #0b0b0b;
      }

      .cls-78 {
        fill: #9e9e9e;
      }

      .cls-79 {
        fill: #363736;
      }

      .cls-80 {
        fill: #ada6a4;
      }

      .cls-81 {
        fill: #eae9e5;
      }

      .cls-82 {
        fill: #464646;
      }

      .cls-83 {
        fill: #ebeae4;
      }

      .cls-84 {
        fill: #545454;
      }

      .cls-85 {
        fill: #6b6b6b;
      }

      .cls-86 {
        fill: #afb8ad;
      }

      .cls-87 {
        fill: #351c20;
      }

      .cls-88 {
        fill: #343;
      }

      .cls-89 {
        fill: #565656;
      }

      .cls-90 {
        fill: #b6b6b6;
      }

      .cls-91 {
        fill: #4b4b4b;
      }

      .cls-92 {
        fill: #5d5d5d;
      }

      .cls-93 {
        fill: #151515;
      }

      .cls-94 {
        fill: #cbd0ca;
      }

      .cls-95 {
        fill: #161516;
      }

      .cls-96 {
        fill: #3d3d3d;
      }

      .cls-97 {
        fill: #a4e5a6;
      }

      .cls-98 {
        fill: #484437;
      }

      .cls-99 {
        fill: #313030;
      }

      .cls-100 {
        fill: #d2d2d2;
      }

      .cls-101 {
        fill: #693947;
      }

      .cls-102 {
        fill: #f088a6;
      }

      .cls-103 {
        fill: #2c2d29;
      }

      .cls-104 {
        fill: #eae9e3;
      }

      .cls-105 {
        fill: #465546;
      }

      .cls-106 {
        fill: #474b47;
      }

      .cls-107 {
        fill: #323232;
      }

      .cls-108 {
        fill: #414141;
      }

      .cls-109 {
        fill: #b4b4b3;
      }

      .cls-110 {
        fill: #434341;
      }

      .cls-111 {
        fill: #afafaf;
      }
    </style>
  </defs>
  <path class="cls-29" d="M154.39,67.05c-2.28-2.17,2.1-3.82,2.17.37l.93-4.88c.51-1.21,1.78-1.33,2.51-.22-.12,5.97.49,6.64,1.82,2,3.04-4.81,4.18,3.33.92,4.3-.3,1.62.76,2,2.09,1.57-1.22-.67.36-3.43,1.07-4.2,3.95-4.31,3.13,1.52,1.44,4.3l.89.88c5.08-5.94,8.3-3.97,3.1,2.26,1.96-1.31,3.93-2.95,5.93-4.92,1.93-.48,2.56,1,1.49,2.56l-4.06,4.61.73,1.17c2.61-2.12,9.18-5.91,5.63.04-3.51,1.93-4.24,5.15.77,2.79,3.32,1.06-.3,4.7-2.39,3.05-.53,1.02-.56,1.9-.1,2.64l-.42,1.01c-.93,1.28-2.7,1.93-5.33,1.93-.03,1.98-1.95,2.82-3.02,1.2l-1.16.15c-11.34-12.19-14.84,14.34-1.02,7.48l1.14.19c1.95-1.79,3.07.68,2.03,2.67,2.37,2,4.71,4,7.02,5.99l-.18.73c-1.03,1.15-2.02,1.22-1.57,3.13-.34.1-.65.14-.84,0-4.27-2.96-1.9-2.47.43.39.09.11.01.36-.11.65-.33,1-.51,2.04-.52,3.13l-.7.49c-3.09-2.53-4.25-2.87-3.47-1.01,1.27.72.86,1.33-.52,1.04-1.65.13-4.13-2.36-5.19-3.76-.34-1.51-.72-3.12-2.16-1.38,1.41,2.28,3.01,5.86-1.12,4.89.69,1.05,1.26,2.18,1.69,3.39v.52c-.03.53-.2.88-.52,1.04l-.65.24c-.92-.97-1.75-1.22-2.48-.77.54.58.12,2.15-.52,2.61l-1.05-3.13c-3.87.43-1.41,3.76-1.53,6.5l-.54,4.98c-.31-1.41-1.2-10.06-1.57-10.44-.11-.11-2.47.46-3.13,0-.47.62.86,5.53-1.04,6.26-.19-1.04.24-6.55,0-6.78-.14-.13-1.68-.04-2.11.24l-2.58,8.11c-.24-2.84.54-5.58,1.04-8.35-.23-2.53-1.24-2.12-3.65-1.04l-.82.1c-.1-2.25-.27-3.17-2.31-2.71-1.53,1.55-2.78,3.52-4.69,4.7.35-3.28,6.17-4.76,2.08-7.31l.62-1.7c-2.24.31-4.45-1.95-3.23-4.04l-.69.2c-1.17-1-2.33-1.42-3.49-1.24.21.6-.14.77-1.04.52-.78.65-1.06.36-.52-.52.41-.28,1.33-.84,1.57-1.04l-.39-1.08c.4-.86.42-3.08-.65-2.57-1.61.44-4.48.61-6.26,1.04.34-1.44,5.75-2.34,5.74-2.87-.04-2.17-2.99-1.02-4.07-.92-.57.05-1.78.61-1.67-.37l5.21-1.58c.22-.93-.78-.33-1.04-.52-.57-.41.82-.56.85-.61.16-.27,0-1.44.71-1.99l-3.65-.26c1.14-1.14,5.16-.85,3.58-3.33-.4-.62-4.2-.5-4.62-1.63l5.22.51c-1.36-2.2.69-.8.52-2.6-1.26-.32-3.03-.84-3.65-2.09h4.7s.65-.45.65-.45c2.65.73,5.3,2.21,7.69,3.57l1.05.65c.69,8.16,13.62,2.95,11.41-3.69-1.7-5.09-9.48-2.14-11.19,1.52l-1.27.48c-2.77-.79-4.51-2.18-5.22-4.17l-.49-.5c1.06-1.47,1.72-3.31.49-4.72-3.71.1-4.68-4.38.23-4.36,4.33,4.49,4.59-.33,1.99-3.54-2-4.55,1.7-4.86,3.68-1.04,2.05,4.15,2.31,3.17,1.03-.69-.8-6.77,5.09-.63,2.98,3.37,1.11.38,1.98.03,2.61-1.04-1.33-.96-1.51-4.62-.52-5.65,1.36-1.4,3.89,2.19,1.56,3.04.13,1.67.44,2.85,2.09,1.57-1.56-.35-1.34-3.41.09-3.48s2.07,1.55.43,1.92c1.14.99,2.19,1.16,3.13.52Z"/>
  <path class="cls-93" d="M70.38,56.09v1.57c1.38-.85,2.28.3,3.65.52l.47.57c-1.38,2.96-2.85,6.02-4.65,8.82l1.09.53c.44,4,2.09,10.64,6.9,10.71l.88.76,1.1-.87c5.23,1.5,10.41,2.2,15.6,1.91.65.11,2.17-.46,2.08.52l-5.74.53c1.16.68.45,2.45.53,2.56.19.28,3.71.79,4.52,1.01.88.25,1.46-.39,1.21,1.11-2.78.18-4.25-1.58-6.54.51l-.77,2.11-.81.6c-9.54-2.91-11-2.28-4.38,1.9,3.35,2.97-.8,4.08-3.46,3.65-1.66-2.53-6.03-5.37-2.04-.99l3.16,4.47-.3,1.33c-.99-.04-1.13.39-1.57,1.04.28.98.1,1.33-.52,1.04l-2.08.78,2.6,6.53c-2.34-.34-3.23-5.79-3.68-6.25-.09-.09-1.99.42-2.57,0l1.56,7.3c-2.45-1.1-1.28-6.79-4.36-5.68-1.66.6-.18,5.62.08,7.11.18,1.06-.68.91-.92.66-.77-.83-.78-6.56-1.83-7.83-1.46,2.01-.1,5.73-2.35,7.3v-7.31l-.53,1.04c-.9.23-.13-1.59-1.29-1.04-1.5.7-1.67,5.65-1.84,7.3-1.93-1.03-.15-3.65-.52-5.37-.06-.27-1.57-.67-1.04-1.93-2.31,1.15-1.41,3.86-2.6,5.74-.41-.6-.58-1.65-.52-3.13.08-.36-.08-.88,0-1.3.09-.26.27-.29.52-.27,1.22-3.86,1.22-4.03,0-.52-1.3-.73-2.49-.98-3.13.52-.73.23-.9-.29-.52-1.57-.06-.31.04-.71,0-1.04,2.46-2.49,2.48-6.33,1.8-9.16,1.09,1.15-3.45,9.43-4.57,3.96l-1.01,1.1c1.52,3.11-3.38,3.85-1.96.96-.78.31-1.83.31-3.13,0-.83.62-5.11,5.25-5.74,4.69.47-1.89,4.9-5.24,5.21-6.53.2-.85-1.96-1.06-2.07-1.03-2.04.63-5.31,4.94-7.84,5.47,2.07-2.49,4.53-5.09,7.3-6.78v-.51c-1.89.48-.05-1.82-1.31-2.1-1.5-.33-3.83,2.14-5.47,2.08l4.69-3.14-1.56-2.6c.59-1.39,1.93-2.11,4.04-2.16-.83.05-1.51-.42-2.11-.93-1.76.53-6.86-1.25-4.02-2.65-.92-.35-.87-1.14.16-2.38l-4.92-1.29c-.55-.87-.14-1.46.58-2.13,3.15.77,5.41.27,6.79-1.51-.12-.6.22-1.3,1.04-2.09-1.32-.45-.76-1.31,0-2.09-.06-.75,1.42-1.29,2.09-1.04-.04-3.1,1.13-4.4,4.17-3.65.16-.93.97-1.3,2.46-1.12,1.94-1.71,4.26-1.69,6.96.05.29-.89.63-1.75,1.02-2.58-2.85-1.6,1.86-3.96,3.65-3.13.59-.3,1.19-.58,1.61-.11-.59-1.55-.43-2.55.48-3.02.15-.46.32-.45.52,0,1.19-1.15,1.71-.97,1.57.52,1.91-.55,1.98,1.43,1.97,2.99-1,8.62.52-.11,1.03-4.22l1.17-.86Z"/>
  <path class="cls-14" d="M238.4,60.78c1.45.66,1.51,1.55,0,2.09,1.47,1.18,2.24,9.13,1.62,10.24-.47.84-2.48.32-2.92-.77-.49.18-.43.74-.06,1.05,4.52.2,5.38,5.61.83,2.53l-1.12.43c-11.13-5.04-11.98,13.84-.82,12.76l.89.89c.28-.32.8-.54,1.07-.27,2.21,2.16-3.83,2.41-4.78,2.43-.3,0-.44.52-.47.97-.2.81-3.18,2.26-4.26,1.12-2.64-2.71-3.66-2.74-3.04-.08.36.15.35.33,0,.52-.41.98-1.05,1.59-2.09,1.04-.05.48-.23.65-.52.52-.1,1.1-.99,1.52-2.68,1.28.1,1-.23,1.62-.97,1.85-.28,1.24-.6,1.43-1.57.52l-.12,1.21c-1.73,2.42-2.82,7,1.16,7.66.73-.7,1.08-.35,1.04,1.04.54-1.51,2.35-1.33,3.65-1.04.17-.45.35-.45.52,0l.71-1.21c4.06-.45,7.92-1.24,11.82-2.44-.33-1.33.89-2.36,2.09-2.61,2.07.33,4.28-.01,6.63-1.01-1.08-2.99-.86-4.74.67-5.25.23-2.03,2.36-.98,2.44.81.39.38,1.62,1.07,2.04.81,1.14-3.4,2.82-2.07,4.57-.05-1.48-2.46-1.95-7.56,2.14-6.12,3.23,1.14,7.02,2.42,10.6,3.36l.13,1.19c1.2.5,3.5,2.78,4.57,3.04,1.24.3,4.2-.67,6.52-.3,6.12.95,9.5,6.1,8.74,12.15-.33,2.65-2.38,4.58-3.14,7.03.6-1.01,5.78-2.24,4.17-.53-.38.41-5.25,2.09-6.26,2.1.52,1.54,4.19-.39,4.69,0-.92,1.85-3.9.79-5.74,1.04-.42-2.81,1.93-3.99,3.06-6.6,5.03-11.67-5.49-15.61-15.06-12.18l.53,1.03c-2.09-.74-3.64-.47-5.74,0-.98,1.1,3.41,2.47-1.04,1.56-1.1.25-1.62.77-1.57,1.57.37.51.69,1.05,1.04,1.57-.42.7-1.29.35-2.61-1.04-.56,1.21-1.61.83-1.57-.52-.77.3-.89.71-1.04,1.57.73-.7,1.01-.38.52.52,1.28,1.13,1.81,2.96,2.61,4.17.69.73.4,1-.52.52-.63-.71-3.32-4.02-3.9-4.03-.12,0-2.19.92-2.27,1.01-.32.35-.03,1.03-.09,1.46.22.86.24,1.07-.52.52-.71-.98-.9-1.19-2.35-1.09-2.5.17.62,6.5,1.3,7.62.11.34-.47.38-.77.26-.57-.24-2.48-5.71-2.88-6.79-.84-.3-1.52-.99-2.05-2.07-1.74.69-1.35-1.34-1.08-2.63l-.18-.74c6.27-3.36,3.58-2.94-8.07,1.26l-1.66-.52c-.33,1.02-.67,1.19-1.04.52-.46,1.09-.94,1.88-1.98,1.27-.64.82-1.89,1.09-3.76.82.35.72-.41.96-1.04.52-1.38.37-2.6.89-3.65,1.57-.25-.09-.46-1.01-.85-1.03-.5-.02-1.29.51-2.02.51-8.95.03-10.63-3.35-6.61-11.31,1.5-2.96,4.7-4.78-1.48-3.31.1-.98,1.06-.78,1.56-1.04,1.42-1.91,1.6-2.6.55-2.09l-1.07-1.04c-.87.01-1.74,0-2.61,0v-.51c1.35.08,2.48-.72,3.65-1.05.72-1.09.02-2.13-2.09-3.13-1.02-.1-2.1.08-3.13,0-1.15-.8,6.23-1.55,6.78-1.57.12-.39-.52-.46-.52-.51l-.69-.19c.25-1.51-.05-2.66-.88-3.46-1.4-.32-2.85-.79-4.18-1.3l4.45.26-.27-.52c.14-.53.84-.71,2.09-.52.47-.09,1.06.06,1.56,0l-.52-2.08c.2-.17,2.14.44,1.56-.78-.73-1.56-7.53-3.47-8.34-6,2.46-.46,8.79,5.67,9.91,2.6-1.04.04-1.02-.8,0-1.04,1.92.85,1.7-1.92,1.43-2.73-.52-1.53-2.1-3.22-2.99-4.57,1.68-.43,3.98,4.57,4.95,4.16,2.29-.94-2.01-3.88-1.29-4.69l3.64,3.13c1.58-1.59-.73-5.52-.52-5.73,1.06-1.04,1.71,2.88,2.88,3.12,2.97.61-.88-6.16-1.31-7.3,1.24-1.26,3.35,5.76,4.85,5.65.12,0,1.37-.38,1.41-.44.21-.26-1.51-5.69-1.56-6.53,1.46-1.05,2.1,3.53,2.6,4.97.98.2,1.47-.35,2.09-1.04.06-.74.33-5.75.78-5.75.63,1.85.63,3.82.78,5.75Z"/>
  <path class="cls-93" d="M242.05,61.83c.55.55.64,1.34.26,2.37l.78-.29c1.82-2.13,2.02-.49,2.09,1.57l.81.5c.05-.95.15-1.53,1.28-1.55.62-1.88,2.57-.49,1.57,1.04,2.66-.5,2.15,3.18.82,3.02-.18-.02.86-2.07.23,1.15-1.55,3.38-2.41,6.27-.76,9.94,1.02,2.26,2.7,4.89,5.51,3.53l.99.62c2.56-2.33,4.01-2.37,4.36-.11,2.33.45,4.69.66,7.07.63l.57,1.05,1.44.46c-.12,1.17.27,2.23,1.17,3.19.87.28,2.18.29,3.13.53l-4.7.52c.41,2.62-.85,2.24,2.09,3.13-.16.3-.31.54-.45.53-4.24-.21-5.39-1.81-.97-.19.19.07.29.36.38.71-1.93-.22-1.82.6-2.09,2.09-.92-.38-3.74-1.68-4.56-1.96-2.28-.78-5.56-.96-7.96-2.21-1.38,4.65,1.73,6.77,4.69,9.66l-1.3,1.3-6.28-6.26c-1.63-.28-.1,1.3-.28,1.52-.1.13-1.15.2-1.58.77-.55.71-.1,1.94-1,1.88.37-1.44-.22-2.71-1.8-2.65-.46.02-.1,1.24-.55,1.08-2.47-.89.32-2.2.26-2.34-.57-1.4-1.47-.75-1.56-.79-.49.82-1.23.82-2.22,0-1.1.75-2.19,1.43-3.24,2.04-.5.01-4.53-3.34-4.45-4.12-.76.66-1.01.38-.52-.52-.64.56-2.08.04-2.61-.52l-2.08-1.57c.71-1.92,1.48-.39,2.36-.29,1.79.2,2.74,0,4.39-.8-.04-.21-.5-.42-.49-.46l-.31-1.18c3.89-2.67,4.17-8.18,1.17-11.63l.18-1.28,2.08.52c-.17-3.02-4.64-.34-4.21-4.37,2.46-2.12,1.68.4,3.69.71-.62-3.25-.78-6.61-1.04-9.91.2-1.17,2.61-1.3,3.65-1.04Z"/>
  <path class="cls-70" d="M145.52,44.61c-19.32,5.98-39.19,10.2-57.39,19.31l1.04.77c-.51.73-1.43.88-2.09,1.31-.45,1.54-.33,1.89.38,1.05l1.18.51c.45-.2,1-.24,1.57-.52,1.12-.39,1.47-.22,1.04.52-.52.35-1.06.68-1.57,1.04-.45.97-.68,1.67,0,2.61,1.23-.12,5.02-1.22,5.21-1.04.91.85-.66,1.11-1.04,1.28-1.32.62-2.94.77-4.17,1.58,1.18.48.43,1.77.52,1.82.63.38,5.05-.27,6.26,0,.12,1.37.07.86-.78,1.02-1.55.29-3.37.43-4.95.54,1.36.66,1.46,3.46,1.6,3.61.11.11,2.49.46,3.09.56-1.44.43-4.64,1.16-6.01,1.09-2.89-.15-8.04-1.75-10.69-2.14-.47-.65-.46-1.6.03-2.83-.68-1.45-.69-2.6-.03-3.43-1.49.3-2.08-1.69-1.04-2.61l-1.18-.23c-.68-2.68-3.58-3.89-6-2.59l-.64-.31c-.21-3.04.18-1.53.92-3.51,1.28-3.42,1.91-3.49,3.25-5.88.75-1.34,2.71-6.49,3.66-7.3,2.85-2.44-1.4,5.86-1.58,6.26-.52,1.66-.34,2.53.52,2.61,1.44-.85,2.06-2,3.13-3.13.73-.69,1-.4.52.52-2.26,2.91-3.25,3.58,1.04,3.65,1.17-.58,1.97-.64,1.04.52-.02.23-1.12,1.59.79,1.58,1.2,0,1.53-1.82,2.87-1.58-.22.9-3.58,2.96-1.31,3.12,15.15-9.92,32.98-14.25,50.36-18.52,3.82-.94,7.04-.74,10.44-2.86,1.88-.8,1.52,1.15,0,1.57Z"/>
  <path class="cls-67" d="M256.66,23.21c-.9,4.38-2.35,7.9-.64,12.38,1.32,3.46,12.32,11.29,15.52,15.27,6.46,8.04,5.5,18.01-.79,25.84l1.31-.26c1.11,1.38-1.31,1.07-2.5,1.67-1.7.86-1.01,1.53-1.42,3.01l6.26-.51c-1.05,1.79-3.87,1.89-5.74,2.09-.18,1.67,2.3,1.74,3.65,2.08.1.73-.74,1-2.52.83-.61,1.47-1.33.78-2.17-.31-1.57,0-7.95-.15-8.63-1.05-.62-.83.51-2.43-2-1.08-.71.38.16,3-1.37.56l-.21-1.15c3.93-3.49.96-13.04-4.71-12.15l-.83-.79-1.56-1.04c1.58.2.52-.61.68-.94.18-.36,1.89.27-.17-2.2-.16-2.37.19-3.07,1.04-2.09,2.28-.99,1.19-4.28,3.65-5.22.22,2.02-.96,3.66-1.57,5.47-.03.44.74.32,1.05.27-.11.65.41.82,1.57.52,1.28-1,2.33-2.2,3.65-3.13-.23,1.25-1.34,3.2-2.08,4.17,1.21,1.2,2.25,1.32,3.65,1.04,1.56-1.13,3.27-3.05,5.22-3.13-.14,1.36-6.17,4.72-5.21,5.73l5.73-2.6c-.15,1.74-2.96,2.6-3.4,3.65-.87,2.08,5.64-.22,6.27-1.56,1.22,1.71-4.76,3.38-4.96,3.66-2.01,2.74,7.13.1,7.99-.49.69-.47,2.16-5.6,2.31-6.7.77-5.66-.95-10.23-4.58-14.46s-14.32-10.76-15.07-16.24c-.42-3.08.01-7.89,1.52-10.65-.26-1.87,1.09-2.38,1.04-.52Z"/>
  <path class="cls-70" d="M172.13,44.09c9.97,9.56,37.65,27.68,25.05,44.09-1.07,1.39-8.15,7.64-9.54,8.45-.34.2-7.51,1.84-6.63,2.76l2.09,1.3c-.39.82-1.15-.12-1.57-.26-1.23.7-1.24,1.37-1.04,2.61,1.49,1.08,4.03,1.6,5.22,3.13-1.47.98-6.33-2.56-6.78-2.08-1.15,1.22,3.6,3.78,3.65,5.21-.81.67-3.59-2.17-4.17-2.6-1.51-1.13-7.71-5.34-7.84-6.53-.16-1.53,1.72-2.21-1.03-2.86-.55-.99-.45-2.37.31-4.14-.21-1.67.04-2.89.73-3.68l2.61-.53-2.08-.52c-.14-.11.28-.68.51-.79.46-.21,6.27-1.16,7.31-1.3-.14-1,.86-1.07,3-.24l1.18-.29c.12-1.05.64-1,1.04,0,1.39.17,1.33.65,0,1.04-.2,1.23-1.42,1.41-3.65.52.39.81-1.46.78-1.37.78,3.21-.01,4.29.7,1.03,2.73l1.38,1.19c.95-1.67,7.22-1.24,5.57,1.24,11.89-8.14,13.85-15.07,4.53-26.78-5.43-6.83-11.83-12.94-18.46-18.53v-1.33c-.89.03-1.96-.02-1.56-1.04-.89-.43-.73-1.79.52-1.57Z"/>
  <path class="cls-70" d="M176.31,110.88c-1.73-1.43-4.29-3.72-5.73-5.49-1.08-1.33-1.89-2.88-2.62-4.42,1.09-.26,1.18.58,1.69,1.18,2.26,2.68,4.89,5.53,7.18,7.69.45.43,2.43,2.28,2.63,2.37,1.69.77,7.56-3.55,9.63-4.46,4.27-1.89,12.63-4.21,13.14,2.94.83,11.65-16.82,14.59-22.7,21.94-.53.66-2.27,3.4-2.13,4.03,1.64,2.33,4.15.39,6.21,1.89l-3.65.52c3.74,3.29.15,1.68-1.81-.02-2.33-2.02-2.64-2.6-1.22-5.37,4.12-8.06,22.71-12.97,23.88-20.47,1.24-7.94-5.39-6.7-10.4-4.65-3.07,1.25-5.65,3.45-8.53,5.04-.8.44-4.48,1.47-4.51,2.26-.01.27,1.41.9,1.02,1.83-1.74-1.36-3.55-1.14-5.2.28-1.09.93.9,1.17.5,2.33-1.37-1.14-2.2-1.93-4.17-1.56-.77,1.18,1.19,4.01,1.04,4.17-1.07,1.11-2.5-3.9-3.15-4.41-.82-.63-2.14-.62-3.11-.8-1.98-.38-3.81-.71-5.74,0,.65-3.18-1.46-6.44-.52-9.91.75-.12.71.91.88,1.45.81,2.59.31,8.78,3.81,6.89.23-.86-.92-.23-1.05-.85-.31-1.41.14-3.76-.5-5.4,1.49-.28.85.39,1.17,1.15.11.25.95,3.58,1.95,2.5.56-.61-2.77-4.78-1.83-5.73l1.3,1.04-.51-2.61c.11-.14,2.7,1.92,2.84,2.11.65.83.59,2.09.94,2.45,1.07,1.09,2.72,1.65,4.04,3.79.88.17.88-.25.52-1.04-.32-.04-.94.08-1.04,0-.13-.11.16-1.58-.85-3.07s-3.49-2.73-3.33-4.49c.18-2.03,2.93,1.93,3.11,2.11.66.64,2.01,1.08,2.37,1.81s.13,1.8.29,2.06c.03.04.72-.38,1.02-.2.93.57.4,1.62,2.61,2.31,1.73-.92,1.91-1.54.52-1.87v-1.26Z"/>
  <path class="cls-42" d="M40.12,89.48c-2.46.72-4.83,1.92-7.31,2.6.55-1.67,7.82-3.32,7.82-4.43-2.22-1.54-5.08-3.17-7.81-2.88l1.04-1.03c-10.53-4.98-21.98-16.76-19.7-29.36.33-1.81,2.08-3.88,3.75-4.6,6.58-2.84,22.09,2.45,27.96,6.31,1.62-.31,1.89,1.77.52,1.57-.15.46-.32.45-.52,0-1.22.49-1.34.17-1.04-1.04l-1.09.69c-5.19-2.01-10.52-3.96-16.03-4.93-22.47-3.96-5.36,23.62,4.75,27.53,2.51.93,4.37,2.21,5.59,3.85-.08.32.14,2.6,1.04,1.56.14-.16-.35-1.21.34-1.59,1.75-.94,5.46-1.02,7.49-1.54l-1.21,1.11-6.09,1.75c.74,1.11,1.61.18,2.71.37.48.08.95.84,1.69.9,1.01.08,3.46-1.33,3.94-.99-3.06,3.99,2.33,1.83,2.61,2.08.55.51-.46,1.16-.9,1.44-1.83,1.15-5.81,1.98-6.41,3.77-3.11-2.33,2.46-2.66,3.14-4.17-2.35-.51-4.18.43-6.26,1.04Z"/>
  <path class="cls-32" d="M50.03,99.92c.42.24.58,1.87,1.31.52.37-.68-.87-.85-.56-1.56s2.97-3.38,3.69-3.65c2.3-.88-2.14,3.6.24,3.65.28-.61,2.78-5.71,3.14-5.22l.26,1.56,1.3-1.56c-.14,2.18-.66,8.79-2.61,9.63-.53.23-.98-.26-1.04-.24-3.37,1.09-3.24,3.72-6,5.74-.18-1.87,1.8-3.54,2.45-5.4.81-2.32-1.86-.89-2.88-.26-3.91,2.45-8.23,4.62-11.83,8-2.16,2.03-8.46,8.18-3.04,9.84,6.16,1.88,13.27-.51,19.17,3.55.46,5.13-2.75,3.65-4.66,4.89-.51.33-.35,1.98-1.56,1.29-.11-.06,1.27-1.34-.25-1.03l-1.83,1.56,1.04-2.08-2.08-.52c6.45-.46,8.47-3.74.72-4.65-1.89-.22-3.83.13-5.68-.06-22.47-2.34,1.98-17.96,9.13-22.43-.39-1.4.21-1.79,1.57-1.57Z"/>
  <path class="cls-70" d="M82.9,99.92c-1.76-2.19-3.08-4.88-5.21-6.78-.61,1.78,1.28,2.45,1.56,2.98.44.85,2.22,4.82.53,3.98-1.6-.79-.31-3.1-2.1-2.78l-.26,3.65c-1.53-1.84-2.67-4.97-2.87-7.3l3.13,3.13c.47-1.45-1.71-2.74-1.49-3.84.18-.9,2.07-1.37,1.76-2.95.8.06,4.67,3.69,4.96,4.7,1.12-.9,2.23-.98,3.64-1.05-1.43-1.25-3.01-2.4-4.52-3.59-1.74-1.37-2.23.25-1.22-3.72,1.91.27,3.69,1.16,5.45,1.62s2.76.38,4.45.99c.34.12,1.35.73,2.09,1.04.6.64.26.81-1.04.52-.46-.1-1.13.11-1.57,0-.75,1.27-1.29.9-1.57-.52l-1.39.94c.87.44.97.6.86,1.67,1.31-.96,1.46-.35,1.57,1.04.56.25,1.81.22,2.75.63,11.31,4.97,2.54,19.17,1.95,27.3-.11,1.47-.69,3.38,1.56,2.86,2.58.02-.12,2.63-2.09,1.04-3.26-4.27,1.49-11.61,2.03-16.49.3-2.67.28-7.56-.88-9.97-1.42-2.94-8-5.54-9.5-1.97-.16.37.72.13,1.04.62.73,1.13,1.2,2.13,2.09,3.29.69.73.4,1-.52.52-1.28-1.25-2.41-2.64-3.92-3.65-.77,1.83,1.97,3.33,1.82,5.21-1.33-.74-2.2-1.98-3.13-3.13Z"/>
  <path class="cls-37" d="M52.12,52.43c.22-.54.7-.62,1.45-.23,4.07-4.07,5.16-.38,5.53,3.76,1.3.75,2.28,1.49,2.94,2.21,1.69-1.06,2.33,3.29,0,2.61-1.33,1.78-4.04.58-3.65,3.13.17,2.89-2.73.74-3.79-.84-.94.19-1.59-.05-1.95-.72-2.18,1.11-3.99.56-3.54-2.1l-.64-.5c-.81.22-.98-.45-.52-1.04-1.51.02-1.16-1.69-.52-2.61-.23-1.61-.23-3.18,0-4.7.05-.09.43-.47.52-.52,1.75-.72,2.97.37,4.17,1.57Z"/>
  <path class="cls-33" d="M154.91,47.22c.74,1.09-.64,2.39-1.57,1.04l-.52,1.11c-14.93-1.69-34.51,11.34-24.32,27.57l-.21,1.58c1.26,1.07,2.48,2.28,3.65,3.65.6-.68,1.28-.97,2.09-.52-.01-1,.83-1.04,1.04,0,1.53.14.95.84,1.61,1.23,1.28.76,3.47,1.1,3.6,2.94,1.32.37,1.3.59,0,1.04-.93.75-1.38.32-2.25-.07-2.24-1.02-4.49-2.21-6.1-3.06-11.01-5.76-11.45-20.46-3.15-28.98,6.15-6.32,15.73-7.67,24.02-8.07.52-1.45,1.82-.77,2.09.52Z"/>
  <path class="cls-77" d="M110.04,98.35c3.69,5.78,2.43,14.58,6.26,19.57,7,9.13,7.2-5.03,8.85-8.37,1.27-2.59,2.76-2.58,4.72-3.89.2.13.35.42.52.52,1.07-.13,2.2-.11,3.13.52.7-.35,1.4-.38,2.09,0,.02-.01.27.49.4.4.27-.19,3.74-4.09,4.29-3.53-.03,1.28-1.48,2.32-2.33,3.16s-2.65,1.03-1.51,2.1c3.11,2.93,3.69-1.95,6.45-3.17l-3.77,6.68c-.3.29-.82.04-.92.11-.31.21-.77.31-1.04.52-1.3.79-1.66.34-1.04-1.04-.66-1.21-.35-3.13-2.61-2.09-.34-.17-.34-.35,0-.52-.23-.76-.57-.9-1.31-1.03-7.78-1.37-5.58,7.09-8.37,11.45-3.69,5.76-8.48.56-10.24-3.8s-1.95-13.58-5.13-16.53c-1.09-1.19.7-1.73,1.57-1.04Z"/>
  <path class="cls-30" d="M235.27,107.22l.97.68c-1.05,1.94.1,2.26,3.45.98,3.16,2.74,4.56,2.24,4.2-1.52l1.29-.15.26,2.61.27-2.09c3.79,1.66.94,1.62,1.04,1.82,2.01.79,1.21,1.38,1.56,2.35l-3.95,1-.23,4.73c-1.2-.39-1.17-3.17-1.04-4.17-.62-.84-1.66-1.02-3.13-.52l-1.56,5.22c-.47-3.24,2.11-6.26-2.57-6.23-1.76,4.03,2.63,10.76-1.92,13.47-2.68,1.59-7.96-.51-11.17,2.68.78,1.52.61,2.56-.52,3.13-2.75-.26-.78-3.43.78-4.69,3.94-3.18,6.32-1.15,9.31-2.17,3.39-1.16,1.04-8.43.5-10.8-.21-.92.27-1.95-1.2-1.64-.45-.16-.44-.33,0-.52-.39-1.43.48-2.65,2.61-3.65.36-.13.68-.39,1.04-.52Z"/>
  <path class="cls-70" d="M70.38,56.09c-.26,1.5-.32,2.98-.59,4.37-.45,2.39-.95,4.75-1.51,7.11-3.46-.86.5-7.1-2.08-9.39l-.59-.66c1.01-.8,1.9-1.8,2.67-2.99.14-1.06.1-2.1.53-3.13.76-.26.39,2.03,1.55,1.04.16-.14.17-1.59,1.05-1.56-.05,1.74-.75,3.56-1.04,5.22Z"/>
  <path class="cls-54" d="M266.58,10.69c-.32-.12-.49-.47-.52-1.04-.84-.36-1.13-1.1-.86-2.21-2.82,2.02-5.37,1.3-7.66-2.17-.58,1.96-1.38,3.67-2.39,5.12-2.34-.29-3.74,0-4.22.84,3.31,1.58,3.68,5.3,3.21,7.98l.96.9c.98.26.98.73,0,1.04-4.95.16-2.23-3.15-2.6-5.45-.21-1.31-2.65-3-2.62-4.75.03-1.99,3.68-1.53,4.7-2.58s.44-4.78,2.89-4.99c2.29-.2,3.12,3.46,4.14,3.55,1.69.15,7.22-4.6,4.97,3.78Z"/>
  <path class="cls-23" d="M266.58,10.69c.62,2.86,2.45,2.96,2.92,4.68.89,3.2-3.55,2.77-4.5,3.4-.81.54-.99,3.89-2.42,4.38-2.28.77-2.89-1.45-4.01-1.41-.99.03-1.29,1.06-1.91,1.48-.07.05-.19-1.04-1.04.52-.21-.85-.53-1.71-.52-2.61,0-.33-.07-.78,0-1.04-1.7-1.79,1.66-4.07,2.9-1.87,1.4.11,2.53,1.2,3.37,3.28.81-2.11,1.85-3.28,3.12-3.51l.72-1.01c3.16.57,3.16-.8-.03-4.09-.81-1.29-.92-3.11.87-3.25.54.14.43.63.52,1.04Z"/>
  <path class="cls-32" d="M59.42,105.14c-.5-2.86.72-6.09,1.57-8.87,1.81.86.39,4.16.51,5.39,0,.1,1.22,1.41,1.31,1.41,1.42-.03,1.82-4.77,2.29-6.06.28-.76.28-1.48,1.11-.46-.26.43-1.79,10.28-2.61,9.12v-2.09c-1.86,1.18-1.6-.57-1.82-.53-1.41.25-1.86,1.89-1.85,3.14-.22-.08-.43-.52-.51-.53v-.52Z"/>
  <path class="cls-14" d="M269.71,94.18c-1.63-.23-3.02-.11-4.23-.3-2.45-.38-5.56-2.34-8.3-2.32-.1-.57.02-1,.52-1.32.46-.3,7.58,1.31,8.72,1.66,1.46.45,2.37.82,4.33,1.23,1.19.25,3.09.15,3.65,1.56-1.72.43-3.3-.32-4.7-.52Z"/>
  <path class="cls-70" d="M63.6,54.52c1.29,1.22,1.46,2.26.52,3.13.13.73,1.29,1.14-.52,1.05v.51c.82-.82,1.36,2.47,1.34,2.88-.05,1.2-1.34,3.37-.83,4.96-1.38.62-1.34-2.61-1.33-3.43,0-1.3,1.76-1.22-.75-2.84.7-.94.93-1.71,0-2.61-.13-.47.14-.74.52-1.04-.06-2.6.04-5.22,0-7.82l1.04,5.22Z"/>
  <path class="cls-94" d="M149.17,40.95c-.42-2.73,3.86.16,4.17,1.57-1.76.42-2.46,1.67-1.6,3.34-1.21.13-2.45.15-3.62-.21-.46-.3-.07-.67-1.57-1.04-.36-1.15,1.67-4.07,2.61-3.65Z"/>
  <path class="cls-40" d="M246.75,59.74c.72-.98,1.07-.63,1.04,1.04-.07.3.05.71,0,1.04-.12.45-.3.44-.52,0,.09,1.09-.61,2.31-2.09,3.65-.49-.31-.41-1.26-.6-1.47-.07-.08-1.13.32-1.48-.09-.42-.72-.77-1.59-1.04-2.61-.46-.13-.45-.3,0-.52-1.45-.24-1.36-1.06,0-1.57l1.56-4.69c.34,1.55-1.14,8.74,1.83,7.82.39-.12,1.13-2.07,1.31-2.61Z"/>
  <path class="cls-72" d="M153.87,42.52c1.52-1.24,6.13,2.72,2.61,3.13-.49.83-1.01,1.35-1.57,1.57-.65.22-1.78-.54-2.09-.52-.18-.16-.4-.32-.52-.52-1.72-.37-1.1-3.39,1.04-3.65.18-.45.35-.45.52,0Z"/>
  <path class="cls-1" d="M52.12,52.43v-2.09s1.3,1.56,1.3,1.56c.92-2.1,4.53-2.93,5.37-.15s-.76,4.71,3.77,5.37c0,.18,1.23.15-.52,1.04-.67-.65-2.87-.97-3.4-2.08-.67-1.42.23-3.71-1.29-4.99-2.75-.85-2.56,2.36-5.22,1.33Z"/>
  <path class="cls-44" d="M172.13,44.09l-.52,1.57c.05,1-.73.95-1.04,0-1.33-1.22-2.7-2.05-4.44-2.76-1.19-1.29-2.2-4.85-.26-5.58-.36-.83-.25-1.05.52-.52.91,1.69.13,3.1.78,4.18.71,1.2,3.58,1.24,4.45,1.83.57.38.42,1.2.51,1.29Z"/>
  <path class="cls-3" d="M166.39,36.78c-.1.2-.51.42-.52.52-1.48-.55-2.73.12-3.75,2-1.6,1.22-3.75-.4-2.51-2,.88-.64,1.72-1.34,2.51-2.09-3.45.61-5.25.62-6.04-3.25l-1.16-1.44c-.44-.15-.44-.32,0-.52,3.1-1.11,2.36,2.63,3.64,3.4,1.06.64,3-.02,4.34.36.67.19,3.1,2.27,3.5,3.02Z"/>
  <path class="cls-59" d="M143.95,117.66c-1.15,1.86-2.04,4.27-3.65,5.74.04-3.27,4.84-6.29.52-8.35.58-.59.72-1.67,2.11-.81,1.46.91.16,2.94,1.03,3.42Z"/>
  <path class="cls-2" d="M147.61,34.69c.83,1.54,1.57,3.21,2.21,4.99l-.65,1.27c-1.77.95-.6,2.58-2.61,3.65-.12-.03-.7.45-1.04,0l.41-1.32-.41-.25c5.1-3.19.95-3.44,1.01-7.06.02-.87.14-1.59,1.07-1.81.46.15.45.32,0,.52Z"/>
  <path class="cls-68" d="M231.62,111.4c-.09.07.09.42,0,.52-1.23,1.43-1.21,1.92-1.95,3.56-.34.75.3,1.42-1.18,1.14,0-1.52,1.82-4.14,1.56-5.47-.24-1.25-1.02-.33-1.31-.27-.25.05-1.74.47-1.82.52-.41-.15-.4-.32,0-.52-.29-.41,0-.59.52-.52.39-.17.75-.4,1.04-.52,2.8-.75,3.85-.23,3.13,1.57Z"/>
  <path class="cls-41" d="M95.95,124.44c.59-.99,1.92-.39,3.13-.52l-1.04,1.03,1.56,1.04-3.13-.52c.4,2.83-1.59,1.35-2.61,0,.62-.61,1.56-.02,2.1-.25.6-.26-.03-.76,0-.79Z"/>
  <path class="cls-38" d="M214.4,82.18c.51.11,1.95-.15,2.09,0,.46.49-.54,2.92-.52,3.65h-2.61s1.04-3.65,1.04-3.65Z"/>
  <path class="cls-14" d="M246.75,59.74c.38-1.15.48-3.04.99-4.51.27-.8-.47-1.5,1.09-1.22.15,2.34-.51,4.55-1.04,6.78l-1.04-1.04Z"/>
  <path class="cls-6" d="M272.32,84.79c.83.21,1.88-.64,1.56,1.04h-4.17s.52,3.13.52,3.13c-2.88-.92-1.13-1.72-2.61-3.65,1.47,0,3.67.42,4.7-.52Z"/>
  <path class="cls-85" d="M131.43,104.61l-1.56-.53c1.16-1.58-1.02-.61-.52-1.82.28-.68,2.43-.74,1.04-1.31.25-.07.69-2.03,1.45-.15.67,1.68.8,2.73-.4,3.8Z"/>
  <path class="cls-31" d="M222.75,128.1c-.38,2.36,3.79.01,4.17,1.56h-3.13s2.6,1.57,2.6,1.57c-1.37-.09-2.81.13-4.17,0,.04-1.18-.38-2.24.52-3.13Z"/>
  <path class="cls-70" d="M161.7,119.23c-1.46,2.11.57,4.92,0,7.3-.67-.2-1.22-2.53-1.32-3.13-.13-.76-.21-1.31-.24-2.09-.04-1.39.06-1.44.52-2.61.63-.82,1.55-.4,1.04.52Z"/>
  <path class="cls-32" d="M56.29,105.66c-.16,1.22-1.19,3.09-1.83,4.19-.19.32-.45,1.95-1.3,1.03-.25-.27,2.06-6,2.61-6.78.07.33.56,1.27.52,1.57Z"/>
  <path class="cls-90" d="M213.88,92.61c5.1-.06,5.23.73.52,3.13.27-1.28.51-2.15-.52-3.13Z"/>
  <path class="cls-75" d="M247.79,61.83c.61.21,1.15.83,2.09.53-.02.34.02.7,0,1.04,0,.1-.51.15-.53.27-.03.2,3.3,1.74-.52,1.82-.45-.55-.53-1.13-1.57-1.04-1-.05-1-.92,0-2.61.13.07.36-.06.52,0Z"/>
  <path class="cls-108" d="M220.66,72.78s.02.99,0,1.04c-.92-.16-1.25,1.21-1.42-.13-.31-2.41-2.44-2.63-3.28-5.08.64-.56,4.37,3.41,4.7,4.17Z"/>
  <path class="cls-38" d="M212.83,87.92c1.25.12,2.43.32,3.66.53-.65.74.1,2.52,0,2.6-.17.14-1.16-.11-1.57,0-1.23-.66-1.47-1.98-2.09-3.13Z"/>
  <path class="cls-84" d="M143.95,117.66c.53-.86,1.1-2.13,2.08-2.6-.26,1.44,1.69.89,2.08,1.87s-.46,1.52-.51,1.78c-1.1-2.52-1.84-.28-3.65-1.04Z"/>
  <path class="cls-89" d="M256.14,65.48c2.25-1.28,1.45,1.61,3.65,1.04-.44.32-1.8,1.72-2.07,1.56-.2-.12-.79-2.2-3.14-1.04.05-.82,1.25-1.15,1.56-1.56Z"/>
  <path class="cls-108" d="M262.4,107.75c1.25.89,1.67,1.76,2.61,2.87-2.06.62-3.45-2.5-5.22-3.39-.46-.15-.45-.32,0-.52.73.39,2.49.96,2.61,1.04Z"/>
  <path class="cls-91" d="M68.29,54.52c-.13.96.41,2.7-.84,3.03-.71.19-1.48-1.29-1.25.62-.36-.32-1.09-.4-1.57-.52-.5-.83.02-1.73,1.04-1.57.17-.18,1.62-.49,1.92-1.57h.69Z"/>
  <path class="cls-87" d="M47.42,56.09c.42,1-.52,1.31,2.09,1.05.41,2.13-1.52.15-2.09.52-.02.34.56.99.52,1.04-.1,4.38-4.5.77-1.57-1.04,0-.83,1.23-.42-.52-1.57.46.13.99-.52,1.04-.52.74-.5.89-.25.52.52Z"/>
  <path class="cls-35" d="M239.44,61.31c.52-1.28,2.25-2.15,2.61-.52-.03.17.02.35,0,.52.45.13.44.3,0,.52-1.06,1.15-2.3.72-3.65,1.04-.05-.69.05-1.4,0-2.09.3.1.82.54,1.04.52Z"/>
  <path class="cls-4" d="M181.52,100.44l-1.04,2.61c-1.29-.93-.46-1.46-.56-1.53-.83-.51-1.44.95-1.53-1.6,1.39-.36,2.14.19,3.13.52Z"/>
  <path class="cls-106" d="M226.92,111.4c-1.43.84-2.9,3-3.14,4.69-1.37-.63.65-3.13.53-4.17-.11-.83,1.79-1.12,2.61-1.04v.52Z"/>
  <path class="cls-107" d="M137.17,112.96c-1.86,1.45-3.32,3.3-5.21,4.7l4.17-5.74c.19.36.76.7,1.04,1.04Z"/>
  <path class="cls-13" d="M90.21,90.53l-.52,3.13c-.75-.33-1.03-.71-1.57-1.04-1.32-.74-1.05-2.52.52-2.61.56.15,1.1.4,1.57.52Z"/>
  <path class="cls-45" d="M81.34,100.96c.32.8,2.84,4.94,2.61,5.22-.77.9-1.14-.69-1.35-.98-.43-.6-1.75-2.65-1.78-3.19,0-.11.39-.84.52-1.04Z"/>
  <path class="cls-74" d="M153.35,42.52c-1.47,1.2-2.24,1.7-1.04,3.65-1.63-.05-2.77.37-4.17-.52h3.13c-.59-1.72-.07-3.4,2.09-3.13Z"/>
  <path class="cls-32" d="M59.42,110.35c-.06.69-.07,2.53-1.04,2.61-.21-2.06.06-3.76.52-5.74.81.52.6,2.2.52,3.13Z"/>
  <path class="cls-108" d="M133.52,109.83c-.23.81-3.55,3.4-4.7,3.65,1.23-1.67,2.75-3.36,4.7-4.17.03.11.03.41,0,.52Z"/>
  <path class="cls-73" d="M88.64,67.57c-1.23.54-1.52,1.82-3.4,0-.52-.57,1.39-1.28,1.83-1.57l1.57,1.57Z"/>
  <path class="cls-109" d="M239.97,112.96v-1.56s3.65,1.04,3.65,1.04c.23.65-.51.98-.52,1.04l-.24-.47c-1.48.51-2.18,1.68-2.89-.05Z"/>
  <path class="cls-63" d="M63.6,54.52l.78,1.05c.54-1.93,1.6-1.41,1.3.52-.11.11-.16,1.41-1.04,1.57h-.52c-.19-1.04-.38-2.08-.52-3.13Z"/>
  <path class="cls-91" d="M108.47,99.4c-.07-.07-.65.18-.92-.1-.84-.86-1.3-3.93.92-1.46l.26-1.04c.56.44.93.98,1.31,1.56l-1.57,1.04Z"/>
  <path class="cls-78" d="M89.69,71.22c-3.92.37-2.14-1.09,0-2.61v2.61Z"/>
  <path class="cls-45" d="M81.34,60.78l4.7-3.13-3.65,3.65c.07-.66-.52-.51-1.04-.52Z"/>
  <path class="cls-111" d="M236.84,60.78c-.1,1.25.55,4.42-1.52,3.1-.15-.1-.41-1.6-.56-2.05l2.09-1.04Z"/>
  <path class="cls-70" d="M164.31,118.18l1.04,4.69c-.9-.3-1.4-2.31-1.56-3.13-.48-.12-.46-.3,0-.52,0-.45.04-.88.52-1.04Z"/>
  <path class="cls-22" d="M160.65,118.7c.13-.34-.31-1.08.3-1.06,1.13.33,2.28.45,2.83,1.59,0,.17-.03.36,0,.52-1.7.78-1.35.14-2.09-.52-.33-.29-.48-.6-1.04-.52Z"/>
  <path class="cls-60" d="M50.03,99.92c-.31.8-.88,1.14-1.57,1.57.26-1.93-.87.29-1.57-1.57,1.42-1.06,1.38-.98,3.13,0Z"/>
  <path class="cls-100" d="M242.05,59.22c-.06.5.08,1.09,0,1.57-.91-.33-2.03.49-2.61.52.29-1.96.53-2.41,2.61-2.09Z"/>
  <path class="cls-92" d="M259.8,106.7v.52l-.53,1.57c-.74-.92-1.48-.48-1.56-.52-.23-.13-.35-.35-.52-.52-.45-1.03-.23-2.1,1.04-1.57.35.23,1.04.24,1.57.52Z"/>
  <path class="cls-65" d="M216.49,80.09c-.65.12-1.98.53-2.09.52-.27-.01-3.09-.91-3.13-1.56l5.22,1.04Z"/>
  <path class="cls-69" d="M262.93,104.61l-1.57,1.57c-.15-.21-.89-.38-1.04-.79,0-1.74,1.68-.97,2.6-.78Z"/>
  <path class="cls-8" d="M79.77,56.61c.84-.88,1.61-2.67,3.13-2.6.4.36-2.38,2.83-2.61,3.13l-.52-.52Z"/>
  <path class="cls-103" d="M147.61,34.69v-.52c1.41-.33,3.57.64,4.7-1.04.15-.33.33-.32.52,0,3.02,2.16-3.75,4.06-5.22,1.57Z"/>
  <path class="cls-36" d="M253.01,63.91c.25-.04.06-1.27.85.52h.71c-1.12.87-1.09,1.85-3.13,1.03l1.56-1.56Z"/>
  <path class="cls-31" d="M253.53,111.4l1.56,3.65c-1.28-.49-1.4-2.19-2.08-3.13.25-.05.49-.28.52-.52Z"/>
  <path class="cls-93" d="M92.82,90c.88.38,2.29.32,2.61,1.56-1.38.54-2.93-.88-3.65-1.04l1.04-.52Z"/>
  <path class="cls-101" d="M47.42,56.09c-.11-.26.04-.55-.52-.52,0-1.67-.3-2.7.52-4.17-.42,1.56,1.25,3.62,0,4.7Z"/>
  <path class="cls-27" d="M260.32,112.44c.54.82,2.25,1.72,2.08,3.13-1.18-.49-1.83-1.74-2.6-2.61l.52-.52Z"/>
  <path class="cls-86" d="M227.44,110.35c-.17.07-.33.43-.52.52-.61.29-2.09.98-2.61,1.04-.15.02-.42.04-.52,0-.44-1.77,2.29-.67,3.4-2.08l.26.51Z"/>
  <path class="cls-56" d="M52.12,52.43c-1.63-.63-2.4-1.89-4.17-1.57,2-1.14,3.06-.33,4.17,1.57Z"/>
  <path class="cls-57" d="M91.25,67.57l-1.04-.52c.92-.45,1.91-1.38,3.13-1.57.26,1.41-1.23,1.51-2.08,2.09Z"/>
  <path class="cls-110" d="M154.91,30v.52c.34,1.45-.52,2.74-2.09,2.61h-.52c.84-1.73.72-2.45,2.61-3.13Z"/>
  <path class="cls-96" d="M88.64,100.96c.26.34,2.4,2.32,2.09,2.6-1.4.2-1.89-1.38-2.61-2.08l.52-.52Z"/>
  <path class="cls-62" d="M76.64,59.74c-.15.09-.07.74-.77.52-1.63-.51-.12-2.28.25-3.13l.52,2.61Z"/>
  <path class="cls-20" d="M173.18,46.69c6.93,5.45,21.76,19.81,24.62,27.82s-2.49,14.65-9.11,18.74c-2.9,1.79-5.06,3.21-8.2.67l2.32-.81,4.46-.49c-1.83-.48-4-.28-5.74-.53-2.22-.96-2.71-1.31-.14-2.22.67-.97.35-1.54-.95-1.73l.05-.75c1.38-.36,2.45-.3,3.65-.52-.01-.27,0-.49.1-.54,1.75-.86,2.34.12.3-.06-.15-.01-.28-.2-.4-.45-.35.02-.7-.01-1.04,0-2.47,1.05-5.59-.66-3.65-3.13,1.05-.57,2.6-.91,3.13-2.08-1.75-.03-4.65,2.37-5.15-.23-.7-3.63,3.2-3.05,4.1-6.04-1.54.21-5.47,3.99-6.51,3.56-.34-.14-1.31-1.87-1.32-2.27-.02-1.22,4.71-4.55,4.7-6.51-.43-.47-6.04,5.52-6.54,5.72-.25.1-1.68-1-1.71-1.1-.42-1.04,3.32-3.92,3.04-5.67-1.69.73-3.62,4.46-5.43,4.2-.16-.02-.63-1.64-1.87-1.07l2.35-6.26c-1.78,1.37-2.43,3.56-3.39,5.22-1.4,1.31-2.61.15-2.09-1.57.39-1.72,1.09-3.4,1.04-5.22-1.28.64-1.8,4.53-2.72,5.13-.28.19-1.42-.39-1.97.08v-6.26c-.81-.13-.62.98-.78,1.57-.4,1.52-.71,3.12-.8,4.69-2.3-.09-2.31-1.05-2.09-3.13-.62-.13-.92,1.13-1.04,1.56-.2,1.45-2.82.72-3.13-.52-.07-.29.05-.7,0-1.04h-.51c-.06.86.06,1.75,0,2.61-1.35,2.52-1.97.39-2.09-1.57-.14-.72,0-2.5-1.04-2.61-.05,1.73.05,3.48,0,5.22-1.1,1.16-1.6.06-.91-.02,1.03-.11-.48,2.61-1.7,1.06-.74-1.84-1.03-3.83-1.57-5.74-.9-.14-.54,1.22-.46,1.76.36,2.42,2.24,4.3-.84,5.53-1.31-2.14-2.18-4.88-4.42-6.26-.18,2.29,1.52,4.01,2.34,5.78.25.54-.25,1.29-.11,1.44.12.13,1.69.03.9,1.12-.12.16-.7-.48-.93-.39-.12.05-1.28,1.98-1.46,1.98-1.71.01-2.7-2.6-4.39-2.63-.43.38,2.86,2.16,1.83,3.12l-3.39-2.6c-.21.2,2.23,2.71,2.61,3.13,1.11,1.58,1.44,2.66-.52,3.65-1.47,1.7-2.5,1.25-3.65-.52-.96-.01-1.83-.36-2.61-1.04-10.62-15.31,3.58-28.37,19.05-30.26,1.88-.23,4.25.3,5.99,0,1.8-.39,1.78.51,1.57,2.09,1.38.26,1.34.7,0,1.04,1.28,2.23,3.09,2.37,5.41.43,1.12-.58,2.06-.2,2.93.61.13-.46.3-.44.52,0,.81-.25,1.5-.25,2.09,0l1.02-1.45c-.82-3.89,3.11-5.36,6.28-4.29Z"/>
  <path class="cls-83" d="M170.57,89.48c.93,2.18.15,5.86-1.04,7.83-1.65,2.72-5.62,2.49-8.19,1.15-6.88-3.61-1.38-18.37,7.16-11.34.42.34,1.91,1.98,2.07,2.37Z"/>
  <path class="cls-50" d="M140.3,86.87c0-.34-.06-.77,0-1.04.98-4.18,8.78-7.86,12.01-4.44,8.01,8.47-12.28,17.62-12.01,5.49Z"/>
  <path class="cls-20" d="M176.31,110.88c.43.35,3.52,2.11,3.13,2.6-1.55.28-2.07,1.02-3.65.53-1.2-1.32-1.76-2.94.52-3.13Z"/>
  <path class="cls-5" d="M179.44,82.7c.85,2.98.6,3.25,3.65,3.13-.9,1.05-2.87.36-4.17.52l-1.47-2.35c.35-1.05,1.37-.96,1.99-1.3Z"/>
  <path class="cls-20" d="M171.61,113.49c6.46.8.81,3.74,0,3.13-.14-.1-.32-1.75-.53-2.09l.52-1.04Z"/>
  <path class="cls-26" d="M135.08,76.44c1.43,1.55,1.89,1.37,1.04,4.18l-1.04,1.04c-.28-.03-.87-.07-1.04,0-2.35-.36-1.58-1.27.52-1.57.15-.58-.98-2.82,1.04-1.56l-.52-2.09Z"/>
  <path class="cls-58" d="M154.39,67.05c-.15.55.11,1.45,0,2.08-.87.4-1.79-1.3-2.08-1.04-.19.17.43,1.25-.52,1.04-.03-.89-.33-1.75-.53-2.61l3.13.52Z"/>
  <path class="cls-55" d="M131.43,105.66c.88-.5,1.71-1.1,2.6-1.56-1.21,2.57.54.77,1.57,2.61-1.19.7.04,1.86-2.09,0-.87-.17-1.57-.52-2.09-1.04Z"/>
  <path class="cls-24" d="M147.61,69.13c-.07,1.9-.21,1.32-1.83,2.61-.23.1-.63-1.19-.78-1.56.3-.31,1.5-.47,1.55-.55.08-.12-1.54-1.93,1.06-.49Z"/>
  <path class="cls-90" d="M148.65,66.52l.53,2.09,1.56-.53c-.12,1.5.24,1.51-1.56,2.09-.56-1.18-.32-2.57-.53-3.65Z"/>
  <path class="cls-82" d="M162.74,68.61c-.32,1.36,1.02,1.29,2.09,1.57-.35.6-.75,1.12-1.3,1.56-1.93-1.38-1.1-1.73-.78-3.12Z"/>
  <path class="cls-20" d="M133.52,106.7c-1.36.13-1.99.14-3.13-.52.34-.18.71-.33,1.04-.52,1.43-.33,1.51.54,2.09,1.04Z"/>
  <path class="cls-20" d="M44.81,56.61l.41.6c-2.74,1.78-2.23,3.87,1.53,6.27.71,1.36.12,4.44-1.51,4.29-.29,1.11-.96,2.08-1.99,2.93-.13.59-.74.93-1.82,1.04l.25.53c.86.76-.01,1.7,0,2.09.24.69-.21,1.15-1.37,1.38l.32.71c.32,4.3-4.28,2.13-7.3,2.61l6.26,1.57c.33.98-.35.98-.38,1.03-.09.19-1.15,1.95-1.19,2.09-8.54-3.17-17.56-10.48-20.74-19.17-1.67-4.57-3.44-11.46,2.63-13.3s18.98,2.92,24.9,5.34Z"/>
  <path class="cls-49" d="M58.26,71.84c9.09-1.32,10.55,13.97,3.4,15.43-9.7,1.98-11.58-14.25-3.4-15.43Z"/>
  <path class="cls-10" d="M77.69,70.7c-1.17,1.3-.73,2.49,1.04,2.61.77,2.38,1.98,3.59,0,6.26-.18-.03-.92.67-2.09.31-4.78-1.45-6.48-7.96-6.79-12.31,1.93-2.44,5.35-1.14,7.03,1.07.58.77.51,1.5.8,2.06Z"/>
  <path class="cls-51" d="M45.86,57.65h.52c.01.99-.15,1.96.79,2.61l-.17-1.51c.27-.15.89.02.95-.06.51.13.49.6.52,1.04l.66.39c-.42,2.79,1.28,3.27,3.52,2.22.64-.02,1.18-.5,2.13-.3,1.34.28,1.99,3.34,3.61,1.87.01.09.73.32.44,1.7-.85,4.04-3.72.42-5.4.42-1.15,0-1.8,1.11-2.74,1.41-.82.26-2.56,0-2.74.12-1.17.2-1.53-1.12-1.1-3.95l-3.67-3.07c.24-1.32,1.08-3.98,2.68-2.89Z"/>
  <path class="cls-87" d="M45.86,57.65c-5.5,2.01,1.15,4.14,1.85,5.76.47,1.09-.67,2.83.23,4.16-.05.03.17,1.07-.29,1.06-.72-.01-1.14-.78-2.32-.29-1.67.7,1.04.8.52,1.31-1.05-.02-1.33,1.11-2.08,1.57-.88.36-1.04.29-.52-.52-.67-1.32,1.1-1.72,1.04-1.82-1.33-2.56-8.21-2.39-9.91-4.95,1.8.17,10.59,3.92,11.48,3.12-1.14-1.97.49-1.48.55-1.83.37-2.19-4.81-4.44-6.28-5.74l3.12.79c-.28-1.68.65-2.47,1.57-3.65.51.21.85.52,1.04,1.04Z"/>
  <path class="cls-99" d="M41.68,74.35c.01.31.69,1,.53,1.56-.63-.28-1.37.5-1.57.53-1.36.14-4.52-.67-5.96-1.09-.59-.17-1.94-.21-1.86-1,3.1.03,6.09,1.8,8.87,0Z"/>
  <path class="cls-79" d="M43.25,70.7c.06,0,.33.43.52.52-.39.24-1.83,1.02-2.09,1.04-1.23.11-4.55-1.18-5.87-1.7-.55-.22-1.55-.15-1.43-.9,2.31-.11,4.37,1.26,6.6,1.53,1.24.15,1.73-.45,2.27-.5Z"/>
  <path class="cls-49" d="M237.88,75.92c3.08,2.75,3.66,7.37,1.86,10.99-.66,1.33-2.86,2.87-2.9,3.1-5.89,1.34-10.24-3.4-9.94-9.11s6.75-8.75,10.98-4.98Z"/>
  <path class="cls-97" d="M225.36,94.7c2.14,1.82,3.88,1.99,5.22.52.3-1.13,3.62-.42,3.85-.15-.16,2.83-.17,5.41,2.93,6.41,1.19-.95,1.82-.29,1.04,1.04-.07,1.3-1.09,1.98-2.09,2.61l-2.05.42c-4.08,1.87-7.47,2.51-9.43-1.99-.51-.8-.16-1.84,1.04-3.13l-1.14-.43c-.25-1.36-.66-2.62-1.46-3.75v-.52c.29-.15.52-1.44,2.09-1.04Z"/>
  <path class="cls-104" d="M235.79,94.18c.48.27,1.26.25,2.06.8.84.58,2.26,2.8,3.13,2.3.05-.03,0-.71.42-1,2.63-1.75,2.1-.98,4.31-.01-.77,1.39.47,5,.41,5.5-.18,1.43-5.86,1.5-6.93,2.85-.23.08-.33-1.37-.78-2.08-.39-.62-.73-.7-1.04-1.04-3.01-.56-4.67-6.69-1.57-7.31Z"/>
  <path class="cls-18" d="M235.27,107.22c4.38-1.61,9.08-2.55,13.28-4.71,2.65,3.55-1.99,3.46-3.36,4.71-1.09,1,.14,4.25-1.9,4.62-1.13.21-2.65-1.98-4.1-1.98-.96,0-3.96,1.99-4.44,1.53l.52-4.17Z"/>
  <path class="cls-66" d="M225.88,100.44c-.74.84-2.18,3.45-1.04,3.13,1.75.16,3.23,2.54,3.5,2.61,3.27.92,5.05-2.21,7.98-1.05-3.6,2.27-8.66,2.83-12.52,3.65l-1.38-1.7c-1.08-.25-1.77-.94-2.07-2.04-2.8-1.05-.59-3.66,1.47-4.2,1.16-.95,1.65-2.48,1.47-4.59,1.8.02,2.34,2.71,2.61,4.17Z"/>
  <path class="cls-20" d="M217.53,99.92c2.19.1,2.05,1.49,1.04,3.13l2.97,3.09c.02.22-2.51,2.77-2.97,2.65-.24.36-.34.81-.78,1.02-3.47-1.65-3.29-3.66-2.38-7.04.48-1.79.67-2.22,2.11-2.85Z"/>
  <path class="cls-39" d="M232.66,93.14c2.2-.59,1.22-.12,2.61.52.31.41-.49,1.72-.78,1.83-1.58-1.15-2.89-1.24-3.92-.27-1.32,1.89-3.06,1.54-5.22-1.04-.4-.15-1.42.32-1.56-.25,1.4-6.16,4.15-.46,6.19,0,.95.21,1.83-.57,2.67-.79Z"/>
  <path class="cls-48" d="M223.27,96.27c.49,4.5-.11,3.82-2.8,5.81-3.2,2.37,3.96,4.04,3.32,6.72-.17.04-.35-.03-.52,0-1.61-.68-2.44-.49-2.5.56l-1.15.49c-.29-.06-.76-.79-1.04-1.04.46-.68,2.08-2.69,2.08-2.87s-1.18-1.36-1.75-1.27c-.73.12-1.5,2.12-2.42,1.78.42-1.22,1.38-2.3,2.09-3.39,0-1.7.53-2.57,1.57-2.61,1.68-.79,1.77-1.63,1.61-3.44l1-.73c.09-.03.28-.4.52-.52v.52Z"/>
  <path class="cls-93" d="M265.02,99.92c.12.16-.46,1.96-.59,2.05s-2.88.09-3,0c-.24-.2-.28-1.46-.86-2.04-.84-.86-3.55-1.06-3.38-3.14l7.82,3.14Z"/>
  <path class="cls-93" d="M257.19,107.75c-1.3-1.27-.34-1.4-.98-2.36-.5-.74-1.7-1.15-2.36-1.86-1.38-1.49-.51-1.41-2.53-2.58-1.32-.77-.08-2.35,1.59-1.43.21.11.94,1.92,1.44,2.47.76.84,3.31,3.82,3.89,4.2l-1.04,1.57Z"/>
  <path class="cls-21" d="M222.75,96.27c.15,2.2.28,5.36-2.61,4.17-1.13.38-1.3.08-1.04-1.04-.67-4.07,1.47-2.46,3.65-3.13Z"/>
  <path class="cls-53" d="M234.23,107.75v3.13s-2.09-1.56-2.09-1.56c1.08,3.12-.03,1.67-.52,2.08-.46-1.22-1.95-1.57-3.13-1.57,1.91-.79,3.81-1.38,5.74-2.09Z"/>
  <path class="cls-20" d="M223.27,108.79c-.05.01-.21.71-.75.79-.49.07-2.67.3-2.9.25.38-2.82,2.03-3.43,3.65-1.04Z"/>
  <path class="cls-20" d="M268.14,98.35c5.63,1.05,1.04,2.46-1.57,1.57-1.67-1.09.1-2.2,1.57-1.57Z"/>
  <path class="cls-80" d="M219.09,99.4c.46.09,1,.57,1.04,1.04.1,1.14-1.05,1.82-1.57,2.61.15-1.31.2-1.9-1.03-2.44l-.02-.69c.5-.22.68-.69,1.57-.52Z"/>
  <path class="cls-98" d="M230.57,95.22c-.52.37-.93,2.09-1.34,2.12-1.29.11-3.19-2.47-3.88-2.64v-.52c3.02,1.11,1.47,2.76,5.22,1.04Z"/>
  <path class="cls-64" d="M268.14,98.35c-1.06-.04-1.61.53-1.57,1.57-2.87-.98-1.36-2.23.76-2.09.47.03.71.5.81.52Z"/>
  <path class="cls-81" d="M255.62,83.74c-6.79,4.57-11.74-11.34-5.74-14.09,6.38-2.92,11.8,10.01,5.74,14.09Z"/>
  <path class="cls-14" d="M243.1,63.91c-.02.75-.44,9.71-2.08,7.82.23-2.01-.35-4.58.02-6.5.28-1.46.84-1.24,1.02-3.42.01-.17-.02-.35,0-.52l1.04-.52c0,1.04.03,2.09,0,3.13Z"/>
  <path class="cls-14" d="M247.27,61.83v2.61l-1.83,7.82-.74-3.37c.29-1.07.27-2.4.49-3.41.07-.31-.11-.76.02-1.19.07-.23,2-1.58,1.56-2.99.5-.11.48.5.52.52Z"/>
  <path class="cls-67" d="M268.66,89.48c-1.07.25-1.94.42-3.04.17-1.23-.28-4.88-1.4-5.96-1.87-.64-.28-2-1.44-1.44-1.95.69-.62,2.64,1.27,3.49,1.46,2.26.51,5.32-.5,6.94,2.18Z"/>
  <path class="cls-52" d="M235.79,94.18c-2.67,3.92-.7,4.83,1.57,7.31-4.43-.41-2.51-2.28-3.24-4.85-.41-1.43-2.24-2.34-3.55-1.41.09-.04.26-.8.88-.97,1.56-.43,3.19,1.25,3.82-.6.19.09.34.42.52.52Z"/>
  <path class="cls-43" d="M77.69,70.7c.65,1.26.62,1.28,1.04,2.61-2.34,2.77-4.25-3.38-1.04-2.61Z"/>
  <path class="cls-20" d="M266.06,74.87c.73-.34,5-2.26,5.22-2.08-1.71,2.68-1.38,3.56-4.7,4.17-.7-.45-.87-1.14-.52-2.09Z"/>
  <path class="cls-31" d="M266.06,74.87c1.34.66.94.77.52,2.09-.31.06-.8.59-1.27.49-1.42-1.59-.7-1.91.75-2.58Z"/>
  <path class="cls-29" d="M180.48,87.4l3.65,2.09c-.41.98-2.32.41-3.38,1.04-.61.36.71,1.06.78,1.56-2.79-.4-5.58-1.05-8.34-1.57.28-1.16,2.32-.05,3.27-.1.6-.04,1.25-.58,1.87-.66,1.08-.13,2.74.87,3.2-.79l-3.13-.53c.27-1.21,1.33-.84,2.09-1.04Z"/>
  <path class="cls-105" d="M171.61,45.65c.27.06,1.24.78,1.57,1.04-1.85,1.06-3.61-.67-5.21,1.31-1.48,1.84.91,3.18-2.09,4.43-.25-.3-.17-.92.25-1.86-2.7-2.75,2.13-6.32,4.45-4.93.24-.05.82-.05,1.04,0Z"/>
  <path class="cls-29" d="M184.13,85.83c.3-.02,4.73-1.56,4.18.26-.06.2-3.42.65-4.18.79v-1.04Z"/>
  <path class="cls-15" d="M169.41,114.65c1.9,1.07.1,3.79-.92,3.01-.13-.1-1.18-3.03-1.05-3.12.16-.11,1.61-.09,1.97.11Z"/>
  <path class="cls-93" d="M88.64,90l-.52,2.61c-1.25-.78-2.64-.65-1.56-2.61-1.54.15-3.03.05-3.66-1.56,1.98.26,3.82,1.04,5.74,1.56Z"/>
  <path class="cls-16" d="M48.47,59.74l1.04-.52c1.15,1.71-2.53,3.33,3.14,3.13-2.83,2.55-3.97.38-4.17-2.61Z"/>
  <path class="cls-61" d="M156.48,45.65c.75.24,1.45.58,2.09,1.04l.56.73c2.7-.55,3.54,1.31.96,2.4-1.81-.05-3.49-.08-5.17.52-.3-.74-1.21-1.33-1.57-2.09.71-.12,1.08-.67,1.57-1.04.38-.29.72-1.42,1.57-1.57Z"/>
  <path class="cls-29" d="M130.91,79.57c1.29.44,2.24.74,3.65.52-.1.37-1.61.49-.52,1.57-1.12.42.5,1.5-2.09.52l-2.58-2.69c.38-.35.89-.32,1.53.08Z"/>
  <path class="cls-19" d="M130.91,79.57c-2.78.17,1.22.66,1.04,2.61-1.99-.75-2.51-2-3.65-3.65,1.22-.43,2.13.88,2.61,1.04Z"/>
  <path class="cls-102" d="M250.92,11.21c-.02-.33-.08-.67.04-.99,6.15-.46,3.72-1.86,5.29-4.9,1.79-3.47,4.41,2.62,5.36,2.64.38,0,3.1-2.16,4.43-1.43.42,1.14.05,2.11.01,3.12-.03.65-.55,1.2-.3,2.1.44,1.57,7.21,6.75-1.27,6.25-.72,1.28-1.81.62-3.25-1.98-2.05,1.05-3.4,1.01-4.05-.1-1.45.73-2.15-.31-2.09-3.13-1.29-.72-2.68-1.24-4.17-1.57Z"/>
  <path class="cls-28" d="M250.92,11.21c1.52-1.07,3.08-.14,4.7,0-.22.52-.38,1.01-.52,1.56l.35.59c-1.47,2.26,2.68,4.22,1.74,2.54,2.39.4,3.66-2.33,5.47.02.89,1.15.11,1.97,1.83,2.07l-2.4,4.66c-2.31.31-2.61-3.12-3.35-3.61-.2-.13-1.64,1.53-2.6,1.03l1.04-2.08c-.82-.54-2.05,1.94-2.09,2.08-4.17.93-1.39-2.58-1.66-4.33-.24-1.52-2.36-2.44-2.51-4.54Z"/>
  <path class="cls-17" d="M154.91,30.52c2.69-.75,2.64,3.78,3.16,4.16.39.29,4.81-1.52,5.19.28.18.85-2.14,3.35-3.65,2.34-1.68-1.69-3.25-1.86-4.7-.52.53.7.66,1.53.39,2.49,2,1.53.9,4.12-1.43,3.25-.14-.07-.37.06-.52,0-1.27-.55-2.39-.53-2.5-.61-.56-.39-.04-1.83-1.67-.96-.6-2.05-2.37-4.09-1.57-6.26,1.33-.16,3.16.31,4.38-.07.95-.3.64-1.17.84-1.49.58-.9,1.18-1.99,2.09-2.61Z"/>
  <path class="cls-46" d="M165.87,37.3c-.12.98.1,3.88.66,4.56.83,1,4.3.88,4.04,3.79-.23.04-3.97,1.97-4.09,2.17-.49.8.43,3.47-.6,4.62-1.92.79-1.25.1-2.09,0,.09-1.28.1-4.27-1.65-4.67-1.13.16-3.65.01-3.57-1.07-1.18.14-1.85,1.26-3.13,1.04.52-.7.74-1.28,1.04-2.08.95-2.45.37-1.02-.58-1.63-.71-.45-1.02-1.05-2.03-1.51,3.16-2.24.65-1.93.52-2.42-.32-1.2-.06-2.31.52-3.32,1.44-1.24,2.56-1.34,4.7.52.25.15.91,1.56,1.3,1.56.92,0,3.03-5.29,4.96-1.56Z"/>
  <path class="cls-34" d="M158.57,46.69c.15-.02.72.4,1.21.36,1.25-.1,2.72-.79,3.76.15.53.48.85,2.03,1.3,2.78.3.51,1.06.17,1.05.63-.01,1.23-1.46,1.14-2.09,1.82-.17-.02-.35.02-.52,0-.64-.61-1.33-.91-2.07-.88-2.87,2.02-4.96,1.97-6.28-.16-.1-.26.1-.79,0-1.04l.52-1.56h5.21s-.25-1.04-.25-1.04l-2.62.51.78-1.57Z"/>
  <path class="cls-88" d="M163.26,52.43c-.72-.09-1.36-.56-2.23-.42-2.4.39-4.36,3.75-6.12-.62,1.3-.38,1.14,1.31,1.88,1.53,2.03.6,4.55-4.1,6.46-.49Z"/>
  <path class="cls-9" d="M163.54,87.4c2.24-.67,3.09,2.98,1.01,4.17-1.91.06-2.55-3.71-1.01-4.17Z"/>
  <path class="cls-25" d="M150.74,82.7c.83,1.67-2.24,4.02-3.13,3.13s.88-4.5,3.13-3.13Z"/>
  <path class="cls-71" d="M61.52,75.4c1.59-1.14,3.96,3.02,1.8,3.64s-2.8-2.93-1.8-3.64Z"/>
  <path class="cls-12" d="M235.15,80.23c1.72,2.02-1.53,6.49-2.79,2.49-.78-2.51,1.5-3.99,2.79-2.49Z"/>
  <path class="cls-76" d="M224.83,103.57s-.14.63-.51.52c-.17-1.59-.08-2.99,1.56-3.66,0,.05.4.12.38.27-.06.52-1.95,1.56-1.43,2.86Z"/>
  <path class="cls-7" d="M241.53,107.23c-.99,1.73-2.53,1.98-3.65.25l3.65-.25Z"/>
  <path class="cls-95" d="M252.77,73.83c2.37-.68,3.14,3.83,1.54,4.17-1.44.3-3.57-3.59-1.54-4.17Z"/>
  <path class="cls-47" d="M255.1,12.78c3.1-1.45.36.35.48,1.82s1.29,1.04,1.61,1.31c.07.06.58.99.52,1.04-3-.28-3.26-1.59-2.61-4.17Z"/>
  <path class="cls-11" d="M159.61,37.3c-1.45-.89-3.24-1.7-4.44,0l-.26-.51c1.94-3.34,3.39-.35,4.7.52Z"/>
</svg>